<mxfile host="app.diagrams.net" modified="2022-06-25T03:25:58.643Z" agent="5.0 (Windows NT 10.0; Win64; x64) AppleWebKit/537.36 (KHTML, like Gecko) Chrome/102.0.5005.124 Safari/537.36 Edg/102.0.1245.44" etag="pKryihJrLox-KS8YOIPN" version="20.0.3" type="github">
  <diagram id="KImYwARB202lto0JqzFa" name="Page-1">
    <mxGraphModel dx="1422" dy="786" grid="1" gridSize="10" guides="1" tooltips="1" connect="1" arrows="1" fold="1" page="1" pageScale="1" pageWidth="827" pageHeight="1169" math="1" shadow="0">
      <root>
        <mxCell id="0" />
        <mxCell id="1" parent="0" />
        <mxCell id="QlNzCIBGUKGyACPJ3_Gz-1" value="" style="whiteSpace=wrap;html=1;aspect=fixed;" vertex="1" parent="1">
          <mxGeometry x="130" y="60" width="320" height="320" as="geometry" />
        </mxCell>
        <mxCell id="QlNzCIBGUKGyACPJ3_Gz-2" value="+" style="whiteSpace=wrap;html=1;aspect=fixed;fontSize=24;" vertex="1" parent="1">
          <mxGeometry x="410" y="60" width="40" height="40" as="geometry" />
        </mxCell>
        <mxCell id="QlNzCIBGUKGyACPJ3_Gz-3" value="-" style="whiteSpace=wrap;html=1;aspect=fixed;fontSize=24;" vertex="1" parent="1">
          <mxGeometry x="370" y="60" width="40" height="40" as="geometry" />
        </mxCell>
        <mxCell id="QlNzCIBGUKGyACPJ3_Gz-4" value="-" style="whiteSpace=wrap;html=1;aspect=fixed;fontSize=24;" vertex="1" parent="1">
          <mxGeometry x="330" y="60" width="40" height="40" as="geometry" />
        </mxCell>
        <mxCell id="QlNzCIBGUKGyACPJ3_Gz-5" value="+" style="whiteSpace=wrap;html=1;aspect=fixed;fontSize=24;" vertex="1" parent="1">
          <mxGeometry x="290" y="60" width="40" height="40" as="geometry" />
        </mxCell>
        <mxCell id="QlNzCIBGUKGyACPJ3_Gz-6" value="+" style="whiteSpace=wrap;html=1;aspect=fixed;fontSize=24;" vertex="1" parent="1">
          <mxGeometry x="250" y="60" width="40" height="40" as="geometry" />
        </mxCell>
        <mxCell id="QlNzCIBGUKGyACPJ3_Gz-7" value="-" style="whiteSpace=wrap;html=1;aspect=fixed;fontSize=24;" vertex="1" parent="1">
          <mxGeometry x="210" y="60" width="40" height="40" as="geometry" />
        </mxCell>
        <mxCell id="QlNzCIBGUKGyACPJ3_Gz-8" value="-" style="whiteSpace=wrap;html=1;aspect=fixed;fontSize=24;" vertex="1" parent="1">
          <mxGeometry x="170" y="60" width="40" height="40" as="geometry" />
        </mxCell>
        <mxCell id="QlNzCIBGUKGyACPJ3_Gz-9" value="+" style="whiteSpace=wrap;html=1;aspect=fixed;fontSize=24;" vertex="1" parent="1">
          <mxGeometry x="130" y="60" width="40" height="40" as="geometry" />
        </mxCell>
        <mxCell id="QlNzCIBGUKGyACPJ3_Gz-18" value="-" style="whiteSpace=wrap;html=1;aspect=fixed;fontSize=24;" vertex="1" parent="1">
          <mxGeometry x="410" y="100" width="40" height="40" as="geometry" />
        </mxCell>
        <mxCell id="QlNzCIBGUKGyACPJ3_Gz-19" value="+" style="whiteSpace=wrap;html=1;aspect=fixed;fontSize=24;" vertex="1" parent="1">
          <mxGeometry x="370" y="100" width="40" height="40" as="geometry" />
        </mxCell>
        <mxCell id="QlNzCIBGUKGyACPJ3_Gz-20" value="+" style="whiteSpace=wrap;html=1;aspect=fixed;fontSize=24;" vertex="1" parent="1">
          <mxGeometry x="330" y="100" width="40" height="40" as="geometry" />
        </mxCell>
        <mxCell id="QlNzCIBGUKGyACPJ3_Gz-21" value="-" style="whiteSpace=wrap;html=1;aspect=fixed;fontSize=24;" vertex="1" parent="1">
          <mxGeometry x="290" y="100" width="40" height="40" as="geometry" />
        </mxCell>
        <mxCell id="QlNzCIBGUKGyACPJ3_Gz-22" value="-" style="whiteSpace=wrap;html=1;aspect=fixed;fontSize=24;" vertex="1" parent="1">
          <mxGeometry x="250" y="100" width="40" height="40" as="geometry" />
        </mxCell>
        <mxCell id="QlNzCIBGUKGyACPJ3_Gz-23" value="+" style="whiteSpace=wrap;html=1;aspect=fixed;fontSize=24;" vertex="1" parent="1">
          <mxGeometry x="210" y="100" width="40" height="40" as="geometry" />
        </mxCell>
        <mxCell id="QlNzCIBGUKGyACPJ3_Gz-24" value="+" style="whiteSpace=wrap;html=1;aspect=fixed;fontSize=24;" vertex="1" parent="1">
          <mxGeometry x="170" y="100" width="40" height="40" as="geometry" />
        </mxCell>
        <mxCell id="QlNzCIBGUKGyACPJ3_Gz-25" value="-" style="whiteSpace=wrap;html=1;aspect=fixed;fontSize=24;" vertex="1" parent="1">
          <mxGeometry x="130" y="100" width="40" height="40" as="geometry" />
        </mxCell>
        <mxCell id="QlNzCIBGUKGyACPJ3_Gz-26" value="-" style="whiteSpace=wrap;html=1;aspect=fixed;fontSize=24;" vertex="1" parent="1">
          <mxGeometry x="410" y="140" width="40" height="40" as="geometry" />
        </mxCell>
        <mxCell id="QlNzCIBGUKGyACPJ3_Gz-27" value="+" style="whiteSpace=wrap;html=1;aspect=fixed;fontSize=24;" vertex="1" parent="1">
          <mxGeometry x="370" y="140" width="40" height="40" as="geometry" />
        </mxCell>
        <mxCell id="QlNzCIBGUKGyACPJ3_Gz-28" value="+" style="whiteSpace=wrap;html=1;aspect=fixed;fontSize=24;" vertex="1" parent="1">
          <mxGeometry x="330" y="140" width="40" height="40" as="geometry" />
        </mxCell>
        <mxCell id="QlNzCIBGUKGyACPJ3_Gz-29" value="-" style="whiteSpace=wrap;html=1;aspect=fixed;fontSize=24;" vertex="1" parent="1">
          <mxGeometry x="290" y="140" width="40" height="40" as="geometry" />
        </mxCell>
        <mxCell id="QlNzCIBGUKGyACPJ3_Gz-30" value="-" style="whiteSpace=wrap;html=1;aspect=fixed;fontSize=24;" vertex="1" parent="1">
          <mxGeometry x="250" y="140" width="40" height="40" as="geometry" />
        </mxCell>
        <mxCell id="QlNzCIBGUKGyACPJ3_Gz-31" value="+" style="whiteSpace=wrap;html=1;aspect=fixed;fontSize=24;" vertex="1" parent="1">
          <mxGeometry x="210" y="140" width="40" height="40" as="geometry" />
        </mxCell>
        <mxCell id="QlNzCIBGUKGyACPJ3_Gz-32" value="+" style="whiteSpace=wrap;html=1;aspect=fixed;fontSize=24;" vertex="1" parent="1">
          <mxGeometry x="170" y="140" width="40" height="40" as="geometry" />
        </mxCell>
        <mxCell id="QlNzCIBGUKGyACPJ3_Gz-33" value="-" style="whiteSpace=wrap;html=1;aspect=fixed;fontSize=24;" vertex="1" parent="1">
          <mxGeometry x="130" y="140" width="40" height="40" as="geometry" />
        </mxCell>
        <mxCell id="QlNzCIBGUKGyACPJ3_Gz-34" value="-" style="whiteSpace=wrap;html=1;aspect=fixed;fontSize=24;" vertex="1" parent="1">
          <mxGeometry x="410" y="260" width="40" height="40" as="geometry" />
        </mxCell>
        <mxCell id="QlNzCIBGUKGyACPJ3_Gz-35" value="+" style="whiteSpace=wrap;html=1;aspect=fixed;fontSize=24;" vertex="1" parent="1">
          <mxGeometry x="370" y="260" width="40" height="40" as="geometry" />
        </mxCell>
        <mxCell id="QlNzCIBGUKGyACPJ3_Gz-36" value="+" style="whiteSpace=wrap;html=1;aspect=fixed;fontSize=24;" vertex="1" parent="1">
          <mxGeometry x="330" y="260" width="40" height="40" as="geometry" />
        </mxCell>
        <mxCell id="QlNzCIBGUKGyACPJ3_Gz-37" value="-" style="whiteSpace=wrap;html=1;aspect=fixed;fontSize=24;" vertex="1" parent="1">
          <mxGeometry x="290" y="260" width="40" height="40" as="geometry" />
        </mxCell>
        <mxCell id="QlNzCIBGUKGyACPJ3_Gz-38" value="-" style="whiteSpace=wrap;html=1;aspect=fixed;fontSize=24;" vertex="1" parent="1">
          <mxGeometry x="250" y="260" width="40" height="40" as="geometry" />
        </mxCell>
        <mxCell id="QlNzCIBGUKGyACPJ3_Gz-39" value="+" style="whiteSpace=wrap;html=1;aspect=fixed;fontSize=24;" vertex="1" parent="1">
          <mxGeometry x="210" y="260" width="40" height="40" as="geometry" />
        </mxCell>
        <mxCell id="QlNzCIBGUKGyACPJ3_Gz-40" value="+" style="whiteSpace=wrap;html=1;aspect=fixed;fontSize=24;" vertex="1" parent="1">
          <mxGeometry x="170" y="260" width="40" height="40" as="geometry" />
        </mxCell>
        <mxCell id="QlNzCIBGUKGyACPJ3_Gz-41" value="-" style="whiteSpace=wrap;html=1;aspect=fixed;fontSize=24;" vertex="1" parent="1">
          <mxGeometry x="130" y="260" width="40" height="40" as="geometry" />
        </mxCell>
        <mxCell id="QlNzCIBGUKGyACPJ3_Gz-42" value="+" style="whiteSpace=wrap;html=1;aspect=fixed;fontSize=24;" vertex="1" parent="1">
          <mxGeometry x="410" y="180" width="40" height="40" as="geometry" />
        </mxCell>
        <mxCell id="QlNzCIBGUKGyACPJ3_Gz-43" value="-" style="whiteSpace=wrap;html=1;aspect=fixed;fontSize=24;" vertex="1" parent="1">
          <mxGeometry x="370" y="180" width="40" height="40" as="geometry" />
        </mxCell>
        <mxCell id="QlNzCIBGUKGyACPJ3_Gz-44" value="-" style="whiteSpace=wrap;html=1;aspect=fixed;fontSize=24;" vertex="1" parent="1">
          <mxGeometry x="330" y="180" width="40" height="40" as="geometry" />
        </mxCell>
        <mxCell id="QlNzCIBGUKGyACPJ3_Gz-45" value="+" style="whiteSpace=wrap;html=1;aspect=fixed;fontSize=24;" vertex="1" parent="1">
          <mxGeometry x="290" y="180" width="40" height="40" as="geometry" />
        </mxCell>
        <mxCell id="QlNzCIBGUKGyACPJ3_Gz-46" value="+" style="whiteSpace=wrap;html=1;aspect=fixed;fontSize=24;" vertex="1" parent="1">
          <mxGeometry x="250" y="180" width="40" height="40" as="geometry" />
        </mxCell>
        <mxCell id="QlNzCIBGUKGyACPJ3_Gz-47" value="-" style="whiteSpace=wrap;html=1;aspect=fixed;fontSize=24;" vertex="1" parent="1">
          <mxGeometry x="210" y="180" width="40" height="40" as="geometry" />
        </mxCell>
        <mxCell id="QlNzCIBGUKGyACPJ3_Gz-48" value="-" style="whiteSpace=wrap;html=1;aspect=fixed;fontSize=24;" vertex="1" parent="1">
          <mxGeometry x="170" y="180" width="40" height="40" as="geometry" />
        </mxCell>
        <mxCell id="QlNzCIBGUKGyACPJ3_Gz-49" value="+" style="whiteSpace=wrap;html=1;aspect=fixed;fontSize=24;" vertex="1" parent="1">
          <mxGeometry x="130" y="180" width="40" height="40" as="geometry" />
        </mxCell>
        <mxCell id="QlNzCIBGUKGyACPJ3_Gz-50" value="+" style="whiteSpace=wrap;html=1;aspect=fixed;fontSize=24;" vertex="1" parent="1">
          <mxGeometry x="410" y="340" width="40" height="40" as="geometry" />
        </mxCell>
        <mxCell id="QlNzCIBGUKGyACPJ3_Gz-51" value="-" style="whiteSpace=wrap;html=1;aspect=fixed;fontSize=24;" vertex="1" parent="1">
          <mxGeometry x="370" y="340" width="40" height="40" as="geometry" />
        </mxCell>
        <mxCell id="QlNzCIBGUKGyACPJ3_Gz-52" value="-" style="whiteSpace=wrap;html=1;aspect=fixed;fontSize=24;" vertex="1" parent="1">
          <mxGeometry x="330" y="340" width="40" height="40" as="geometry" />
        </mxCell>
        <mxCell id="QlNzCIBGUKGyACPJ3_Gz-53" value="+" style="whiteSpace=wrap;html=1;aspect=fixed;fontSize=24;" vertex="1" parent="1">
          <mxGeometry x="290" y="340" width="40" height="40" as="geometry" />
        </mxCell>
        <mxCell id="QlNzCIBGUKGyACPJ3_Gz-54" value="+" style="whiteSpace=wrap;html=1;aspect=fixed;fontSize=24;" vertex="1" parent="1">
          <mxGeometry x="250" y="340" width="40" height="40" as="geometry" />
        </mxCell>
        <mxCell id="QlNzCIBGUKGyACPJ3_Gz-55" value="-" style="whiteSpace=wrap;html=1;aspect=fixed;fontSize=24;" vertex="1" parent="1">
          <mxGeometry x="210" y="340" width="40" height="40" as="geometry" />
        </mxCell>
        <mxCell id="QlNzCIBGUKGyACPJ3_Gz-56" value="-" style="whiteSpace=wrap;html=1;aspect=fixed;fontSize=24;" vertex="1" parent="1">
          <mxGeometry x="170" y="340" width="40" height="40" as="geometry" />
        </mxCell>
        <mxCell id="QlNzCIBGUKGyACPJ3_Gz-57" value="+" style="whiteSpace=wrap;html=1;aspect=fixed;fontSize=24;" vertex="1" parent="1">
          <mxGeometry x="130" y="340" width="40" height="40" as="geometry" />
        </mxCell>
        <mxCell id="QlNzCIBGUKGyACPJ3_Gz-58" value="+" style="whiteSpace=wrap;html=1;aspect=fixed;fontSize=24;" vertex="1" parent="1">
          <mxGeometry x="410" y="220" width="40" height="40" as="geometry" />
        </mxCell>
        <mxCell id="QlNzCIBGUKGyACPJ3_Gz-59" value="-" style="whiteSpace=wrap;html=1;aspect=fixed;fontSize=24;" vertex="1" parent="1">
          <mxGeometry x="370" y="220" width="40" height="40" as="geometry" />
        </mxCell>
        <mxCell id="QlNzCIBGUKGyACPJ3_Gz-60" value="-" style="whiteSpace=wrap;html=1;aspect=fixed;fontSize=24;" vertex="1" parent="1">
          <mxGeometry x="330" y="220" width="40" height="40" as="geometry" />
        </mxCell>
        <mxCell id="QlNzCIBGUKGyACPJ3_Gz-61" value="+" style="whiteSpace=wrap;html=1;aspect=fixed;fontSize=24;" vertex="1" parent="1">
          <mxGeometry x="290" y="220" width="40" height="40" as="geometry" />
        </mxCell>
        <mxCell id="QlNzCIBGUKGyACPJ3_Gz-62" value="+" style="whiteSpace=wrap;html=1;aspect=fixed;fontSize=24;" vertex="1" parent="1">
          <mxGeometry x="250" y="220" width="40" height="40" as="geometry" />
        </mxCell>
        <mxCell id="QlNzCIBGUKGyACPJ3_Gz-63" value="-" style="whiteSpace=wrap;html=1;aspect=fixed;fontSize=24;" vertex="1" parent="1">
          <mxGeometry x="210" y="220" width="40" height="40" as="geometry" />
        </mxCell>
        <mxCell id="QlNzCIBGUKGyACPJ3_Gz-64" value="-" style="whiteSpace=wrap;html=1;aspect=fixed;fontSize=24;" vertex="1" parent="1">
          <mxGeometry x="170" y="220" width="40" height="40" as="geometry" />
        </mxCell>
        <mxCell id="QlNzCIBGUKGyACPJ3_Gz-65" value="+" style="whiteSpace=wrap;html=1;aspect=fixed;fontSize=24;" vertex="1" parent="1">
          <mxGeometry x="130" y="220" width="40" height="40" as="geometry" />
        </mxCell>
        <mxCell id="QlNzCIBGUKGyACPJ3_Gz-66" value="-" style="whiteSpace=wrap;html=1;aspect=fixed;fontSize=24;" vertex="1" parent="1">
          <mxGeometry x="410" y="300" width="40" height="40" as="geometry" />
        </mxCell>
        <mxCell id="QlNzCIBGUKGyACPJ3_Gz-67" value="+" style="whiteSpace=wrap;html=1;aspect=fixed;fontSize=24;" vertex="1" parent="1">
          <mxGeometry x="370" y="300" width="40" height="40" as="geometry" />
        </mxCell>
        <mxCell id="QlNzCIBGUKGyACPJ3_Gz-68" value="+" style="whiteSpace=wrap;html=1;aspect=fixed;fontSize=24;" vertex="1" parent="1">
          <mxGeometry x="330" y="300" width="40" height="40" as="geometry" />
        </mxCell>
        <mxCell id="QlNzCIBGUKGyACPJ3_Gz-69" value="-" style="whiteSpace=wrap;html=1;aspect=fixed;fontSize=24;" vertex="1" parent="1">
          <mxGeometry x="290" y="300" width="40" height="40" as="geometry" />
        </mxCell>
        <mxCell id="QlNzCIBGUKGyACPJ3_Gz-70" value="-" style="whiteSpace=wrap;html=1;aspect=fixed;fontSize=24;" vertex="1" parent="1">
          <mxGeometry x="250" y="300" width="40" height="40" as="geometry" />
        </mxCell>
        <mxCell id="QlNzCIBGUKGyACPJ3_Gz-71" value="+" style="whiteSpace=wrap;html=1;aspect=fixed;fontSize=24;" vertex="1" parent="1">
          <mxGeometry x="210" y="300" width="40" height="40" as="geometry" />
        </mxCell>
        <mxCell id="QlNzCIBGUKGyACPJ3_Gz-72" value="+" style="whiteSpace=wrap;html=1;aspect=fixed;fontSize=24;" vertex="1" parent="1">
          <mxGeometry x="170" y="300" width="40" height="40" as="geometry" />
        </mxCell>
        <mxCell id="QlNzCIBGUKGyACPJ3_Gz-73" value="-" style="whiteSpace=wrap;html=1;aspect=fixed;fontSize=24;" vertex="1" parent="1">
          <mxGeometry x="130" y="300" width="40" height="40" as="geometry" />
        </mxCell>
        <mxCell id="QlNzCIBGUKGyACPJ3_Gz-74" value="$$x_2$$" style="text;html=1;strokeColor=none;fillColor=none;align=center;verticalAlign=middle;whiteSpace=wrap;rounded=0;fontSize=24;" vertex="1" parent="1">
          <mxGeometry x="40" y="205" width="60" height="30" as="geometry" />
        </mxCell>
        <mxCell id="QlNzCIBGUKGyACPJ3_Gz-77" value="$$2$$" style="text;html=1;strokeColor=none;fillColor=none;align=center;verticalAlign=middle;whiteSpace=wrap;rounded=0;fontSize=24;" vertex="1" parent="1">
          <mxGeometry x="80" y="205" width="60" height="30" as="geometry" />
        </mxCell>
        <mxCell id="QlNzCIBGUKGyACPJ3_Gz-78" value="$$4$$" style="text;html=1;strokeColor=none;fillColor=none;align=center;verticalAlign=middle;whiteSpace=wrap;rounded=0;fontSize=24;" vertex="1" parent="1">
          <mxGeometry x="80" y="45" width="60" height="30" as="geometry" />
        </mxCell>
        <mxCell id="QlNzCIBGUKGyACPJ3_Gz-79" value="$$2$$" style="text;html=1;strokeColor=none;fillColor=none;align=center;verticalAlign=middle;whiteSpace=wrap;rounded=0;fontSize=24;" vertex="1" parent="1">
          <mxGeometry x="260" y="390" width="60" height="30" as="geometry" />
        </mxCell>
        <mxCell id="QlNzCIBGUKGyACPJ3_Gz-80" value="$$4$$" style="text;html=1;strokeColor=none;fillColor=none;align=center;verticalAlign=middle;whiteSpace=wrap;rounded=0;fontSize=24;" vertex="1" parent="1">
          <mxGeometry x="420" y="390" width="60" height="30" as="geometry" />
        </mxCell>
        <mxCell id="QlNzCIBGUKGyACPJ3_Gz-81" value="$$0$$" style="text;html=1;strokeColor=none;fillColor=none;align=center;verticalAlign=middle;whiteSpace=wrap;rounded=0;fontSize=24;" vertex="1" parent="1">
          <mxGeometry x="80" y="390" width="60" height="30" as="geometry" />
        </mxCell>
        <mxCell id="QlNzCIBGUKGyACPJ3_Gz-82" value="$$x_1$$" style="text;html=1;strokeColor=none;fillColor=none;align=center;verticalAlign=middle;whiteSpace=wrap;rounded=0;fontSize=24;" vertex="1" parent="1">
          <mxGeometry x="260" y="420" width="60" height="30" as="geometry" />
        </mxCell>
      </root>
    </mxGraphModel>
  </diagram>
</mxfile>
